# xmcd
#
# Track frame offsets: 
#        151
#        20199
#        47677
#        80078
#        98726
#        117913
#        146481
#        165294
#        191087
#        209149
#
# Disc length: 3037 seconds
#
# Revision: 0
# Processed by: cddbd v1.5.2PL0 Copyright (c) Steve Scherf et al.
# Submitted via: ExactAudioCopy v0.99pb5
#
DISCID=8d0bdb0a
DTITLE=Siam Millenium - Thai Classical Dance CD2
DYEAR=2000
DGENRE=Thai
TTITLE0=A-CHA Feat. KANRISNEE (Club Mix)
TTITLE1=NANG NAK (Extended Mix)
TTITLE2=I DON´T WANT TO SAY GOODBYE (NANG NAK)
TTITLE3=KHANK KOW KIN KHLUAY (Club Mix)
TTITLE4=KHANG KOW KIN KHLUAY (Original Version)
TTITLE5=KHANG KOW KIN KHLUAY (Trance Version)
TTITLE6=KHANG KOW KIN KHLUAY (Funky Mix)
TTITLE7=THAI DANCING (Trance Mix)
TTITLE8=THAI DANCING (Funky-Beat Mix)
TTITLE9=Thai Dancing (Trip-Beat Mix)
EXTD=
EXTT0=
EXTT1=
EXTT2=
EXTT3=
EXTT4=
EXTT5=
EXTT6=
EXTT7=
EXTT8=
EXTT9=
PLAYORDER=
